<?xml version="1.0" encoding="UTF-8" standalone="no"?>
<!DOCTYPE svg PUBLIC "-//W3C//DTD SVG 1.1//EN" "http://www.w3.org/Graphics/SVG/1.1/DTD/svg11.dtd">
<!-- Generated by Microsoft Visio, SVG Export audio_module_example.svg Page-1 -->
<svg xmlns="http://www.w3.org/2000/svg" xmlns:xlink="http://www.w3.org/1999/xlink" xmlns:ev="http://www.w3.org/2001/xml-events"
		width="5.49234in" height="1.93863in" viewBox="0 0 395.449 139.581" xml:space="preserve" color-interpolation-filters="sRGB"
		class="st14">
	<style type="text/css">
	<![CDATA[
		.st1 {fill:#4672c4;stroke:#c7c8c8;stroke-width:0.25}
		.st2 {fill:#feffff;font-family:Calibri;font-size:0.833336em}
		.st3 {fill:#00a9ce;stroke:none;stroke-width:1}
		.st4 {fill:#ffffff;font-family:Arial;font-size:0.833336em}
		.st5 {font-size:1.20001em}
		.st6 {font-size:1em}
		.st7 {marker-end:url(#mrkr4-21);stroke:#00a9ce;stroke-linecap:butt;stroke-width:1}
		.st8 {fill:#00a9ce;fill-opacity:1;stroke:#00a9ce;stroke-opacity:1;stroke-width:0.28409090909091}
		.st9 {marker-start:url(#mrkr4-37);stroke:#00a9ce;stroke-linecap:butt;stroke-width:1}
		.st10 {fill:none;stroke:none;stroke-width:1}
		.st11 {fill:#00a9ce;font-family:Arial;font-size:0.916672em}
		.st12 {fill:none;stroke:#768692;stroke-dasharray:7,5;stroke-width:1}
		.st13 {fill:#768692;font-family:Arial;font-size:0.916672em}
		.st14 {fill:none;fill-rule:evenodd;font-size:12px;overflow:visible;stroke-linecap:square;stroke-miterlimit:3}
	]]>
	</style>

	<defs id="Markers">
		<g id="lend4">
			<path d="M 2 1 L 0 0 L 2 -1 L 2 1 " style="stroke:none"/>
		</g>
		<marker id="mrkr4-21" class="st8" refX="-7.04" orient="auto" markerUnits="strokeWidth" overflow="visible">
			<use xlink:href="#lend4" transform="scale(-3.52,-3.52) "/>
		</marker>
		<marker id="mrkr4-37" class="st8" refX="6.68" orient="auto" markerUnits="strokeWidth" overflow="visible">
			<use xlink:href="#lend4" transform="scale(3.52) "/>
		</marker>
	</defs>
	<g>
		<title>Page-1</title>
		<g id="shape348-1" transform="translate(6.10265,-110.985)">
			<title>Rectangle.348</title>
			<desc>Application</desc>
			<rect x="0" y="111.235" width="277.8" height="28.3464" class="st1"/>
			<text x="115.86" y="128.41" class="st2">Application</text>		</g>
		<g id="shape349-4" transform="translate(6.10265,-23.5547)">
			<title>Ellipse.349</title>
			<desc>Input (application)</desc>
			<path d="M0 113.02 A48.1888 26.5608 0 0 1 96.38 113.02 A48.1888 26.5608 0 1 1 -0 113.02 Z" class="st3"/>
			<text x="37.07" y="108.82" class="st4">Input <tspan x="15.5" dy="1.15em" class="st5">(application)</tspan></text>		</g>
		<g id="shape350-8" transform="translate(147.835,-23.5547)">
			<title>Ellipse.350</title>
			<desc>Process (LC3 decoder)</desc>
			<path d="M0 113.02 A48.1888 26.5608 0 0 1 96.38 113.02 A48.1888 26.5608 0 1 1 -0 113.02 Z" class="st3"/>
			<text x="30.13" y="108.82" class="st4">Process<tspan x="16.23" dy="1.38em" class="st6">(LC3 decoder)</tspan></text>		</g>
		<g id="shape351-12" transform="translate(289.567,-23.5547)">
			<title>Ellipse.351</title>
			<desc>Output (I2S out)</desc>
			<path d="M0 113.02 A48.1888 26.5608 0 0 1 96.38 113.02 A48.1888 26.5608 0 1 1 -0 113.02 Z" class="st3"/>
			<text x="33.18" y="108.82" class="st4">Output <tspan x="25.18" dy="1.15em" class="st5">(I2S out)</tspan></text>		</g>
		<g id="shape352-16" transform="translate(102.48,-43.0288)">
			<title>Dynamic connector.352</title>
			<path d="M0 132.49 L38.31 132.49" class="st7"/>
		</g>
		<g id="shape353-22" transform="translate(244.213,-43.0288)">
			<title>Dynamic connector.353</title>
			<path d="M0 132.49 L38.31 132.49" class="st7"/>
		</g>
		<g id="shape354-27" transform="translate(244.213,-50.1154)">
			<title>Dynamic connector.354</title>
			<path d="M0 139.58 L22.11 139.58 L22.11 85.75" class="st7"/>
		</g>
		<g id="shape355-32" transform="translate(61.378,-76.6762)">
			<title>Dynamic connector.355</title>
			<path d="M-7.09 132.9 L-7.09 132.54 L-7.09 105.27" class="st9"/>
		</g>
		<g id="shape356-38" transform="translate(6.10265,-85.4729)">
			<title>Sheet.356</title>
			<desc>Data in</desc>
			<rect x="0" y="114.069" width="48.1888" height="25.5118" class="st10"/>
			<text x="6.67" y="130.13" class="st11">Data in</text>		</g>
		<g id="shape358-41" transform="translate(266.323,-85.4729)">
			<title>Sheet.358</title>
			<desc>Data returned</desc>
			<rect x="0" y="114.069" width="79.937" height="25.5118" class="st10"/>
			<text x="6.34" y="130.13" class="st11">Data returned</text>		</g>
		<g id="shape359-44" transform="translate(1,-1)">
			<title>Sheet.359</title>
			<desc>Audio stream</desc>
			<path d="M0 139.58 L393.45 139.58 L393.45 54.54 L0 54.54 L0 139.58 Z" class="st12"/>
			<text x="4" y="132.28" class="st13">Audio stream</text>		</g>
	</g>
</svg>
