<?xml version="1.0" encoding="UTF-8" standalone="no"?>
<!DOCTYPE svg PUBLIC "-//W3C//DTD SVG 1.1//EN" "http://www.w3.org/Graphics/SVG/1.1/DTD/svg11.dtd">
<!-- Generated by Microsoft Visio, SVG Export audio_module_states.svg Page-20 -->
<svg xmlns="http://www.w3.org/2000/svg" xmlns:xlink="http://www.w3.org/1999/xlink" xmlns:ev="http://www.w3.org/2001/xml-events"
		xmlns:v="http://schemas.microsoft.com/visio/2003/SVGExtensions/" width="11.6929in" height="8.26772in"
		viewBox="0 0 841.89 595.276" xml:space="preserve" color-interpolation-filters="sRGB" class="st11">
	<v:documentProperties v:langID="1033" v:metric="true" v:viewMarkup="false">
		<v:userDefs>
			<v:ud v:nameU="msvSubprocessMaster" v:prompt="" v:val="VT4(Rectangle)"/>
			<v:ud v:nameU="msvNoAutoConnect" v:val="VT0(1):26"/>
		</v:userDefs>
	</v:documentProperties>

	<style type="text/css">
	<![CDATA[
		.st1 {fill:#4672c4;stroke:#c8c8c8;stroke-width:0.25}
		.st2 {fill:#feffff;font-family:Calibri;font-size:0.666664em}
		.st3 {marker-end:url(#mrkr13-15);stroke:#c00000;stroke-linecap:round;stroke-linejoin:round;stroke-width:1}
		.st4 {fill:#c00000;fill-opacity:1;stroke:#c00000;stroke-opacity:1;stroke-width:0.28409090909091}
		.st5 {marker-start:url(#mrkr13-26);stroke:#c00000;stroke-linecap:round;stroke-linejoin:round;stroke-width:1}
		.st6 {stroke:#c00000;stroke-linecap:round;stroke-linejoin:round;stroke-width:1}
		.st7 {fill:none;stroke:none;stroke-width:0.25}
		.st8 {fill:#000000;font-family:Calibri;font-size:0.666664em}
		.st9 {marker-end:url(#mrkr13-94);stroke:#c00000;stroke-linecap:round;stroke-linejoin:round;stroke-width:0.75}
		.st10 {fill:#c00000;fill-opacity:1;stroke:#c00000;stroke-opacity:1;stroke-width:0.22935779816514}
		.st11 {fill:none;fill-rule:evenodd;font-size:12px;overflow:visible;stroke-linecap:square;stroke-miterlimit:3}
	]]>
	</style>

	<defs id="Markers">
		<g id="lend13">
			<path d="M 3 1 L 0 0 L 3 -1 L 3 1 " style="stroke:none"/>
		</g>
		<marker id="mrkr13-15" class="st4" v:arrowType="13" v:arrowSize="2" v:setback="10.2" refX="-10.2" orient="auto"
				markerUnits="strokeWidth" overflow="visible">
			<use xlink:href="#lend13" transform="scale(-3.52,-3.52) "/>
		</marker>
		<marker id="mrkr13-26" class="st4" v:arrowType="13" v:arrowSize="2" v:setback="10.2" refX="10.2" orient="auto"
				markerUnits="strokeWidth" overflow="visible">
			<use xlink:href="#lend13" transform="scale(3.52) "/>
		</marker>
		<marker id="mrkr13-94" class="st10" v:arrowType="13" v:arrowSize="2" v:setback="13.08" refX="-13.08" orient="auto"
				markerUnits="strokeWidth" overflow="visible">
			<use xlink:href="#lend13" transform="scale(-4.36,-4.36) "/>
		</marker>
	</defs>
	<g v:mID="45" v:index="21" v:groupContext="foregroundPage">
		<v:userDefs>
			<v:ud v:nameU="msvThemeOrder" v:val="VT0(0):26"/>
		</v:userDefs>
		<title>Page-20</title>
		<v:pageProperties v:drawingScale="0.0393701" v:pageScale="0.0393701" v:drawingUnits="24" v:shadowOffsetX="8.50394"
				v:shadowOffsetY="-8.50394"/>
		<v:layer v:name="Flowchart" v:index="0"/>
		<g id="shape1-1" v:mID="1" v:groupContext="shape" v:layerMember="0" transform="translate(405.766,-266.903)">
			<title>Data process</title>
			<desc>configured</desc>
			<v:custProps>
				<v:cp v:nameU="Cost" v:lbl="Cost" v:type="7" v:format="@" v:langID="1033"/>
				<v:cp v:nameU="Duration" v:lbl="Duration" v:type="2" v:langID="1033"/>
				<v:cp v:nameU="Resources" v:lbl="Resources" v:langID="1033"/>
			</v:custProps>
			<v:userDefs>
				<v:ud v:nameU="visVersion" v:val="VT0(15):26"/>
			</v:userDefs>
			<v:textBlock v:margins="rect(1,1,1,1)" v:tabSpace="42.5197"/>
			<v:textRect cx="28.3465" cy="566.929" width="56.7" height="56.6929"/>
			<path d="M0 566.93 A28.3465 28.3465 0 0 1 56.69 566.93 A28.3465 28.3465 0 1 1 0 566.93 Z" class="st1"/>
			<text x="10.83" y="569.33" class="st2" v:langID="1033"><v:paragraph v:horizAlign="1"/><v:tabList/>configured</text>		</g>
		<g id="shape3-4" v:mID="3" v:groupContext="shape" v:layerMember="0" transform="translate(405.766,-190.368)">
			<title>Data process.3</title>
			<desc>stopped</desc>
			<v:custProps>
				<v:cp v:nameU="Cost" v:lbl="Cost" v:type="7" v:format="@" v:langID="1033"/>
				<v:cp v:nameU="Duration" v:lbl="Duration" v:type="2" v:langID="1033"/>
				<v:cp v:nameU="Resources" v:lbl="Resources" v:langID="1033"/>
			</v:custProps>
			<v:userDefs>
				<v:ud v:nameU="visVersion" v:val="VT0(15):26"/>
			</v:userDefs>
			<v:textBlock v:margins="rect(1,1,1,1)" v:tabSpace="42.5197"/>
			<v:textRect cx="28.3465" cy="566.929" width="56.7" height="56.6929"/>
			<path d="M0 566.93 A28.3465 28.3465 0 0 1 56.69 566.93 A28.3465 28.3465 0 1 1 0 566.93 Z" class="st1"/>
			<text x="15.04" y="569.33" class="st2" v:langID="1033"><v:paragraph v:horizAlign="1"/><v:tabList/>stopped</text>		</g>
		<g id="shape4-7" v:mID="4" v:groupContext="shape" v:layerMember="0" transform="translate(292.38,-210.21)">
			<title>Data process.4</title>
			<desc>running</desc>
			<v:custProps>
				<v:cp v:nameU="Cost" v:lbl="Cost" v:type="7" v:format="@" v:langID="1033"/>
				<v:cp v:nameU="Duration" v:lbl="Duration" v:type="2" v:langID="1033"/>
				<v:cp v:nameU="Resources" v:lbl="Resources" v:langID="1033"/>
			</v:custProps>
			<v:userDefs>
				<v:ud v:nameU="visVersion" v:val="VT0(15):26"/>
			</v:userDefs>
			<v:textBlock v:margins="rect(1,1,1,1)" v:tabSpace="42.5197"/>
			<v:textRect cx="28.3465" cy="566.929" width="56.7" height="56.6929"/>
			<path d="M0 566.93 A28.3465 28.3465 0 0 1 56.69 566.93 A28.3465 28.3465 0 1 1 0 566.93 Z" class="st1"/>
			<text x="15.75" y="569.33" class="st2" v:langID="1033"><v:paragraph v:horizAlign="1"/><v:tabList/>running</text>		</g>
		<g id="shape5-10" v:mID="5" v:groupContext="shape" transform="translate(590.486,854.187) rotate(161.565)">
			<title>Sheet.5</title>
			<path d="M0 584.14 A85.0394 28.3465 -161.57 0 0 82.1 591.53 L82.36 591.28" class="st3"/>
		</g>
		<g id="shape7-16" v:mID="7" v:groupContext="shape" transform="translate(339.073,-215.599) rotate(-0.165523)">
			<title>Sheet.7</title>
			<path d="M0 592.35 A64.9199 7.06889 -173.72 0 0 54.77 595.03 L55.12 594.94" class="st3"/>
		</g>
		<g id="shape9-21" v:mID="9" v:groupContext="shape" transform="translate(-162.471,482.286) rotate(-102.436)">
			<title>Sheet.9</title>
			<path d="M8 588.94 L8.28 588.72 A33.1161 23.3708 38.93 0 1 39.61 595.28" class="st5"/>
		</g>
		<g id="group10-27" transform="translate(-12.3852,-129.357) rotate(-45)" v:mID="10" v:groupContext="group">
			<title>Sheet.10</title>
			<g id="shape11-28" v:mID="11" v:groupContext="shape" transform="translate(-505.958,279.571) rotate(-58.2069)">
				<title>Sheet.11</title>
				<path d="M-0 595.28 A20.7367 16.3994 105.06 0 1 23.49 595.28" class="st6"/>
			</g>
			<g id="shape12-31" v:mID="12" v:groupContext="shape" transform="translate(-473.128,907.058) rotate(-121.984)">
				<title>Sheet.12</title>
				<path d="M8.47 594.3 L8.77 594.5 A22.9576 18.1755 -104.12 0 0 25.99 588.63" class="st5"/>
			</g>
		</g>
		<g id="group13-36" transform="translate(-294.33,372.361) rotate(-90)" v:mID="13" v:groupContext="group">
			<title>Sheet.13</title>
			<g id="shape14-37" v:mID="14" v:groupContext="shape" transform="translate(-488.458,252.623) rotate(-55.1406)">
				<title>Sheet.14</title>
				<path d="M-0 595.28 A21.4633 19.0362 130.54 0 1 28.22 595.28" class="st6"/>
			</g>
			<g id="shape15-40" v:mID="15" v:groupContext="shape" transform="translate(-447.749,933.393) rotate(-125.059)">
				<title>Sheet.15</title>
				<path d="M8.75 593.87 L9.06 594.05 A23.6994 21.1614 -129.63 0 0 31.24 588.63" class="st5"/>
			</g>
		</g>
		<g id="group16-45" transform="translate(454.556,988.845) rotate(180)" v:mID="16" v:groupContext="group">
			<title>Sheet.16</title>
			<g id="shape17-46" v:mID="17" v:groupContext="shape" transform="translate(-445.232,197.879) rotate(-48.4125)">
				<title>Sheet.17</title>
				<path d="M-0 595.28 A21.8098 19.3551 138.41 0 1 29.16 595.28" class="st6"/>
			</g>
			<g id="shape18-49" v:mID="18" v:groupContext="shape" transform="translate(-397.929,987.603) rotate(-131.799)">
				<title>Sheet.18</title>
				<path d="M8.8 593.79 L9.11 593.97 A24.0839 21.5324 -138.2 0 0 32.31 588.63" class="st5"/>
			</g>
		</g>
		<g id="shape19-54" v:mID="19" v:groupContext="shape" transform="translate(313.41,950.026) rotate(-170.823)">
			<title>Sheet.19</title>
			<path d="M-0 591.4 A58.6564 9.47612 -9.18 0 0 48.97 592.93 L49.32 592.88" class="st3"/>
		</g>
		<g id="shape20-59" v:mID="20" v:groupContext="shape" transform="translate(332.003,-291.008)">
			<title>Sheet.20</title>
			<desc>START</desc>
			<v:textBlock v:margins="rect(4,4,4,4)" v:tabSpace="42.5197"/>
			<v:textRect cx="19.8425" cy="588.189" width="39.69" height="14.1732"/>
			<rect x="0" y="581.102" width="39.685" height="14.1732" class="st7"/>
			<text x="9.62" y="590.59" class="st8" v:langID="1033"><v:paragraph v:horizAlign="1"/><v:tabList/>START</text>		</g>
		<g id="shape21-62" v:mID="21" v:groupContext="shape" transform="translate(472.38,-309.423)">
			<title>Sheet.21</title>
			<desc>KILL</desc>
			<v:textBlock v:margins="rect(4,4,4,4)" v:tabSpace="42.5197"/>
			<v:textRect cx="11.8416" cy="588.189" width="23.69" height="14.1732"/>
			<rect x="0" y="581.102" width="23.6831" height="14.1732" class="st7"/>
			<text x="4" y="590.59" class="st8" v:langID="1033"><v:paragraph/><v:tabList/>KILL</text>		</g>
		<g id="shape22-65" v:mID="22" v:groupContext="shape" transform="translate(541.417,-280.063)">
			<title>Sheet.22</title>
			<desc>KILL</desc>
			<v:textBlock v:margins="rect(4,4,4,4)" v:tabSpace="42.5197"/>
			<v:textRect cx="11.8416" cy="588.189" width="23.69" height="14.1732"/>
			<rect x="0" y="581.102" width="23.6831" height="14.1732" class="st7"/>
			<text x="4" y="590.59" class="st8" v:langID="1033"><v:paragraph/><v:tabList/>KILL</text>		</g>
		<g id="shape23-68" v:mID="23" v:groupContext="shape" transform="translate(360.411,-222.977)">
			<title>Sheet.23</title>
			<desc>START</desc>
			<v:textBlock v:margins="rect(4,4,4,4)" v:tabSpace="42.5197"/>
			<v:textRect cx="19.8425" cy="588.189" width="39.69" height="14.1732"/>
			<rect x="0" y="581.102" width="39.685" height="14.1732" class="st7"/>
			<text x="9.62" y="590.59" class="st8" v:langID="1033"><v:paragraph v:horizAlign="1"/><v:tabList/>START</text>		</g>
		<g id="shape24-71" v:mID="24" v:groupContext="shape" transform="translate(342.201,-200.3)">
			<title>Sheet.24</title>
			<desc>STOP</desc>
			<v:textBlock v:margins="rect(4,4,4,4)" v:tabSpace="42.5197"/>
			<v:textRect cx="20.4437" cy="588.189" width="40.89" height="14.1732"/>
			<rect x="0" y="581.102" width="40.8875" height="14.1732" class="st7"/>
			<text x="11.94" y="590.59" class="st8" v:langID="1033"><v:paragraph v:horizAlign="1"/><v:tabList/>STOP</text>		</g>
		<g id="shape25-74" v:mID="25" v:groupContext="shape" transform="translate(367.498,-255.575)">
			<title>Sheet.25</title>
			<desc>STOP</desc>
			<v:textBlock v:margins="rect(4,4,4,4)" v:tabSpace="42.5197"/>
			<v:textRect cx="19.8425" cy="588.189" width="39.69" height="14.1732"/>
			<rect x="0" y="581.102" width="39.685" height="14.1732" class="st7"/>
			<text x="18.68" y="590.59" class="st8" v:langID="1033"><v:paragraph v:horizAlign="2"/><v:tabList/>STOP</text>		</g>
		<g id="shape26-77" v:mID="26" v:groupContext="shape" v:layerMember="0" transform="translate(405.766,-347.701)">
			<title>Data process.58</title>
			<desc>undefined</desc>
			<v:custProps>
				<v:cp v:nameU="Cost" v:lbl="Cost" v:type="7" v:format="@" v:langID="1033"/>
				<v:cp v:nameU="Duration" v:lbl="Duration" v:type="2" v:langID="1033"/>
				<v:cp v:nameU="Resources" v:lbl="Resources" v:langID="1033"/>
			</v:custProps>
			<v:userDefs>
				<v:ud v:nameU="visVersion" v:val="VT0(15):26"/>
			</v:userDefs>
			<v:textBlock v:margins="rect(1,1,1,1)" v:tabSpace="42.5197"/>
			<v:textRect cx="28.3465" cy="566.929" width="56.7" height="56.6929"/>
			<path d="M0 566.93 A28.3465 28.3465 0 0 1 56.69 566.93 A28.3465 28.3465 0 1 1 0 566.93 Z" class="st1"/>
			<text x="11.72" y="569.33" class="st2" v:langID="1033"><v:paragraph v:horizAlign="1"/><v:tabList/>undefined</text>		</g>
		<g id="group27-80" transform="translate(414.757,-394.484)" v:mID="27" v:groupContext="group">
			<title>Sheet.27</title>
			<g id="shape28-81" v:mID="28" v:groupContext="shape" transform="translate(-445.232,197.879) rotate(-48.4125)">
				<title>Sheet.28</title>
				<path d="M-0 595.28 A21.8098 19.3551 138.41 0 1 29.16 595.28" class="st6"/>
			</g>
			<g id="shape29-84" v:mID="29" v:groupContext="shape" transform="translate(-397.929,987.603) rotate(-131.799)">
				<title>Sheet.29</title>
				<path d="M8.8 593.79 L9.11 593.97 A24.0839 21.5324 -138.2 0 0 32.31 588.63" class="st5"/>
			</g>
		</g>
		<g id="shape30-89" v:mID="30" v:groupContext="shape" transform="translate(1029.39,247.574) rotate(90)">
			<title>Sheet.30</title>
			<path d="M0 595.28 L14.3 595.28" class="st9"/>
		</g>
		<g id="shape31-95" v:mID="31" v:groupContext="shape" transform="translate(1031.01,481.785) rotate(-77.5644) scale(1,-1)">
			<title>Sheet.31</title>
			<path d="M-0 595.28 A33.1161 23.3708 38.93 0 1 30.42 590.07 L30.74 590.24" class="st3"/>
		</g>
		<g id="shape32-100" v:mID="32" v:groupContext="shape" transform="translate(462.459,-254.158)">
			<title>Sheet.32</title>
			<desc>RECONFIGURE</desc>
			<v:textBlock v:margins="rect(4,4,4,4)" v:tabSpace="42.5197"/>
			<v:textRect cx="28.3465" cy="588.189" width="56.7" height="14.1732"/>
			<rect x="0" y="581.102" width="56.6929" height="14.1732" class="st7"/>
			<text x="4" y="590.59" class="st8" v:langID="1033"><v:paragraph/><v:tabList/>RECONFIGURE</text>		</g>
		<g id="shape33-103" v:mID="33" v:groupContext="shape" transform="translate(405.766,-335.658)">
			<title>Sheet.33</title>
			<desc>OPEN</desc>
			<v:textBlock v:margins="rect(4,4,4,4)" v:tabSpace="42.5197"/>
			<v:textRect cx="14.3789" cy="588.189" width="28.76" height="14.1732"/>
			<rect x="0" y="581.102" width="28.7578" height="14.1732" class="st7"/>
			<text x="6.26" y="590.59" class="st8" v:langID="1033"><v:paragraph v:horizAlign="2"/><v:tabList/>OPEN</text>		</g>
		<g id="shape34-106" v:mID="34" v:groupContext="shape" transform="translate(1057.73,376.561) rotate(90) scale(-1,1)">
			<title>Sheet.34</title>
			<path d="M-0 595.28 A272.89 109.903 80.24 0 1 152.06 586.13 L152.24 586.44" class="st3"/>
		</g>
		<g id="shape35-111" v:mID="35" v:groupContext="shape" transform="translate(1035.48,128.256) rotate(78.996)">
			<title>Sheet.35</title>
			<path d="M9.26 591 L9.59 590.85 A67.3605 26.0535 148.11 0 1 59.23 595.28" class="st5"/>
		</g>
	</g>
</svg>
