<?xml version="1.0" encoding="UTF-8" standalone="no"?>
<!DOCTYPE svg PUBLIC "-//W3C//DTD SVG 1.1//EN" "http://www.w3.org/Graphics/SVG/1.1/DTD/svg11.dtd">
<!-- Generated by Microsoft Visio, SVG Export audio_module_flow.svg Page-1 -->
<svg xmlns="http://www.w3.org/2000/svg" xmlns:xlink="http://www.w3.org/1999/xlink" xmlns:ev="http://www.w3.org/2001/xml-events"
		width="3.60922in" height="9.07081in" viewBox="0 0 259.864 653.098" xml:space="preserve" color-interpolation-filters="sRGB"
		class="st12">
	<style type="text/css">
	<![CDATA[
		.st1 {fill:#00a9ce;stroke:none;stroke-linecap:round;stroke-linejoin:round;stroke-width:0.24}
		.st2 {marker-end:url(#mrkr4-8);stroke:#00a9ce;stroke-linecap:butt;stroke-width:1}
		.st3 {fill:#00a9ce;fill-opacity:1;stroke:#00a9ce;stroke-opacity:1;stroke-width:0.28409090909091}
		.st4 {fill:#00a9ce;stroke:none;stroke-width:1}
		.st5 {fill:#ffffff;font-family:Arial;font-size:0.75em}
		.st6 {fill:#ffffff;font-family:Arial;font-size:0.666664em}
		.st7 {fill:#768692;stroke:none;stroke-width:1}
		.st8 {font-size:1em}
		.st9 {fill:#ffffff;font-family:Arial;font-size:0.708344em}
		.st10 {fill:none;stroke:none;stroke-width:1}
		.st11 {fill:#00a9ce;font-family:Arial;font-size:0.916672em}
		.st12 {fill:none;fill-rule:evenodd;font-size:12px;overflow:visible;stroke-linecap:square;stroke-miterlimit:3}
	]]>
	</style>

	<defs id="Markers">
		<g id="lend4">
			<path d="M 2 1 L 0 0 L 2 -1 L 2 1 " style="stroke:none"/>
		</g>
		<marker id="mrkr4-8" class="st3" refX="-7.04" orient="auto" markerUnits="strokeWidth" overflow="visible">
			<use xlink:href="#lend4" transform="scale(-3.52,-3.52) "/>
		</marker>
	</defs>
	<g>
		<title>Page-1</title>
		<g id="shape292-1" transform="translate(77.6265,-643.507)">
			<title>Sheet.292</title>
			<path d="M0 648.36 A4.73572 4.73572 0 0 1 9.47 648.36 A4.73572 4.73572 0 1 1 0 648.36 Z" class="st1"/>
		</g>
		<g id="shape293-3" transform="translate(75.2756,-643.507)">
			<title>Dynamic connector.1737</title>
			<path d="M7.09 653.1 L7.09 661.95" class="st2"/>
		</g>
		<g id="shape295-9" transform="translate(51.0085,-593.05)">
			<title>Ellipse</title>
			<desc>OPEN</desc>
			<path d="M0 635.82 A31.3538 17.2816 0 1 1 62.71 635.82 A31.3538 17.2816 0 1 1 -0 635.82 Z" class="st4"/>
			<text x="18.6" y="638.82" class="st5">OPEN</text>		</g>
		<g id="shape296-12" transform="translate(47.5096,-516.075)">
			<title>Ellipse.1747</title>
			<desc>CONFIGURE</desc>
			<path d="M0 635.82 A34.8527 17.2816 0 0 1 69.71 635.82 A34.8527 17.2816 0 1 1 0 635.82 Z" class="st4"/>
			<text x="10.85" y="638.52" class="st6">CONFIGURE</text>		</g>
		<g id="shape297-15" transform="translate(77.6265,-567.421)">
			<title>Sheet.297</title>
			<path d="M0 648.36 A4.73572 4.73572 0 0 1 9.47 648.36 A4.73572 4.73572 0 1 1 0 648.36 Z" class="st1"/>
		</g>
		<g id="shape298-17" transform="translate(47.5058,-372.914)">
			<title>Ellipse.298</title>
			<desc>START</desc>
			<path d="M0 635.82 A34.8527 17.2816 0 0 1 69.71 635.82 A34.8527 17.2816 0 1 1 0 635.82 Z" class="st4"/>
			<text x="20.1" y="638.82" class="st5">START</text>		</g>
		<g id="shape299-20" transform="translate(46.9254,-434.309)">
			<title>Decision.299</title>
			<desc>Started?</desc>
			<path d="M0 631.84 L35.43 610.58 L70.87 631.84 L35.43 653.1 L0 631.84 Z" class="st7"/>
			<text x="23.43" y="634.54" class="st5">Start?</text>		</g>
		<g id="shape300-23" transform="translate(47.5096,-299.116)">
			<title>Ellipse.300</title>
			<desc>PROCESS DATA</desc>
			<path d="M0 635.82 A34.8527 17.2816 0 0 1 69.71 635.82 A34.8527 17.2816 0 1 1 0 635.82 Z" class="st4"/>
			<text x="12.85" y="633.12" class="st5">PROCESS <tspan x="22.85" dy="1.2em" class="st8">DATA</tspan></text>		</g>
		<g id="shape301-27" transform="translate(46.9273,-239.57)">
			<title>Decision.301</title>
			<desc>Started?</desc>
			<path d="M0 631.84 L35.43 610.58 L70.87 631.84 L35.43 653.1 L0 631.84 Z" class="st7"/>
			<text x="12.67" y="634.54" class="st5">More data?</text>		</g>
		<g id="shape302-30" transform="translate(46.9273,-151.28)">
			<title>Decision.302</title>
			<desc>Started?</desc>
			<path d="M0 631.84 L35.43 610.58 L70.87 631.84 L35.43 653.1 L0 631.84 Z" class="st7"/>
			<text x="15.92" y="634.54" class="st5">Finished?</text>		</g>
		<g id="shape303-33" transform="translate(47.5058,-43.9193)">
			<title>Ellipse.303</title>
			<desc>CLOSE</desc>
			<path d="M0 635.15 A34.8527 17.946 0 1 1 69.71 635.15 A34.8527 17.946 0 1 1 0 635.15 Z" class="st4"/>
			<text x="19.6" y="638.15" class="st5">CLOSE</text>		</g>
		<g id="shape304-36" transform="translate(77.6265,-17.4997)">
			<title>Sheet.304</title>
			<path d="M0 648.36 A4.73572 4.73572 0 0 1 9.47 648.36 A4.73572 4.73572 0 1 1 0 648.36 Z" class="st1"/>
		</g>
		<g id="shape305-38" transform="translate(146.14,-151.28)">
			<title>Decision.305</title>
			<desc>Started?</desc>
			<path d="M0 631.84 L35.43 610.58 L70.87 631.84 L35.43 653.1 L0 631.84 Z" class="st7"/>
			<text x="10.15" y="634.39" class="st9">Reconfigure?</text>		</g>
		<g id="shape307-41" transform="translate(89.4488,-593.05)">
			<title>Dynamic connector.307</title>
			<path d="M-7.09 653.1 L-7.09 662.22" class="st2"/>
		</g>
		<g id="shape308-46" transform="translate(75.2756,-567.421)">
			<title>Dynamic connector.308</title>
			<path d="M7.09 653.1 L7.09 662.84" class="st2"/>
		</g>
		<g id="shape311-51" transform="translate(75.2703,-434.309)">
			<title>Dynamic connector.311</title>
			<path d="M7.09 653.1 L7.09 672.89" class="st2"/>
		</g>
		<g id="shape312-56" transform="translate(77.6265,-211.223)">
			<title>Sheet.312</title>
			<path d="M0 648.36 A4.73572 4.73572 0 0 1 9.47 648.36 A4.73572 4.73572 0 1 1 0 648.36 Z" class="st1"/>
		</g>
		<g id="shape313-58" transform="translate(217.01,-172.54)">
			<title>Dynamic connector.313</title>
			<path d="M0 653.1 L22.85 653.1 L22.85 253.48 L-122.87 253.48" class="st2"/>
		</g>
		<g id="shape317-63" transform="translate(75.2737,-43.9193)">
			<title>Dynamic connector.317</title>
			<path d="M7.08 653.1 L7.09 663.01" class="st2"/>
		</g>
		<g id="shape318-68" transform="translate(46.9273,-260.83)">
			<title>Dynamic connector.318</title>
			<path d="M0 653.1 L-26.93 653.1 L-26.93 559.55 L23.66 559.55" class="st2"/>
		</g>
		<g id="shape319-73" transform="translate(117.797,-165.453)">
			<title>Dynamic connector.319</title>
			<path d="M0 646.01 L21.3 646.01" class="st2"/>
		</g>
		<g id="shape323-78" transform="translate(117.795,-455.569)">
			<title>Dynamic connector.323</title>
			<path d="M0 653.1 L22.07 653.1 L22.07 892.71 L-23.66 892.71" class="st2"/>
		</g>
		<g id="shape327-83" transform="translate(181.57,-193.8)">
			<title>Sheet.327</title>
			<desc>No</desc>
			<rect x="0" y="636.715" width="28.3427" height="16.3833" class="st10"/>
			<text x="7.14" y="648.21" class="st11">No</text>		</g>
		<g id="shape328-86" transform="translate(117.797,-172.54)">
			<title>Sheet.328</title>
			<desc>No</desc>
			<rect x="0" y="636.715" width="28.3427" height="16.3833" class="st10"/>
			<text x="7.14" y="648.21" class="st11">No</text>		</g>
		<g id="shape329-89" transform="translate(82.3572,-134.897)">
			<title>Sheet.329</title>
			<desc>Yes</desc>
			<rect x="0" y="636.715" width="28.3477" height="16.3833" class="st10"/>
			<text x="4.7" y="648.21" class="st11">Yes</text>		</g>
		<g id="shape330-92" transform="translate(211.334,-172.54)">
			<title>Sheet.330</title>
			<desc>Yes</desc>
			<rect x="0" y="636.715" width="28.3477" height="16.3833" class="st10"/>
			<text x="4.7" y="648.21" class="st11">Yes</text>		</g>
		<g id="shape331-95" transform="translate(19.1618,-260.829)">
			<title>Sheet.331</title>
			<desc>Yes</desc>
			<rect x="0" y="636.715" width="28.3477" height="16.3833" class="st10"/>
			<text x="4.7" y="648.21" class="st11">Yes</text>		</g>
		<g id="shape332-98" transform="translate(81.7781,-417.925)">
			<title>Sheet.332</title>
			<desc>Yes</desc>
			<rect x="0" y="636.715" width="28.3477" height="16.3833" class="st10"/>
			<text x="4.7" y="648.21" class="st11">Yes</text>		</g>
		<g id="shape333-101" transform="translate(117.795,-455.569)">
			<title>Sheet.333</title>
			<desc>No</desc>
			<rect x="0" y="636.715" width="28.3477" height="16.3833" class="st10"/>
			<text x="7.14" y="648.21" class="st11">No</text>		</g>
		<g id="shape334-104" transform="translate(54.0095,-223.186)">
			<title>Sheet.334</title>
			<desc>No</desc>
			<rect x="0" y="636.715" width="28.3477" height="16.3833" class="st10"/>
			<text x="7.14" y="648.21" class="st11">No</text>		</g>
		<g id="shape360-107" transform="translate(147.299,-329.512)">
			<title>Ellipse.360</title>
			<desc>STOP</desc>
			<path d="M0 635.82 A34.8527 17.2816 0 0 1 69.71 635.82 A34.8527 17.2816 0 1 1 0 635.82 Z" class="st4"/>
			<text x="22.6" y="638.82" class="st5">STOP</text>		</g>
		<g id="shape361-110" transform="translate(77.6265,-489.952)">
			<title>Sheet.361</title>
			<path d="M0 648.36 A4.73572 4.73572 0 0 1 9.47 648.36 A4.73572 4.73572 0 1 1 0 648.36 Z" class="st1"/>
		</g>
		<g id="shape362-112" transform="translate(75.2756,-516.075)">
			<title>Dynamic connector.362</title>
			<path d="M7.09 653.1 L7.09 662.71" class="st2"/>
		</g>
		<g id="shape363-117" transform="translate(89.4454,-490.477)">
			<title>Dynamic connector.363</title>
			<path d="M-7.08 653.62 L-7.09 659.71" class="st2"/>
		</g>
		<g id="shape364-122" transform="translate(182.151,-364.076)">
			<title>Dynamic connector.364</title>
			<path d="M0 653.1 L0 522.49 L-88.01 522.49" class="st2"/>
		</g>
		<g id="shape365-127" transform="translate(174.774,-193.8)">
			<title>Dynamic connector.365</title>
			<path d="M6.8 653.1 L7.35 524.43" class="st2"/>
		</g>
		<g id="shape366-132" transform="translate(47.5046,-94.7289)">
			<title>Ellipse.366</title>
			<desc>STOP</desc>
			<path d="M0 635.82 A34.8527 17.2816 0 0 1 69.71 635.82 A34.8527 17.2816 0 1 1 0 635.82 Z" class="st4"/>
			<text x="22.6" y="638.82" class="st5">STOP</text>		</g>
		<g id="shape367-135" transform="translate(75.2706,-151.28)">
			<title>Dynamic connector.367</title>
			<path d="M7.09 653.1 L7.09 668.05" class="st2"/>
		</g>
		<g id="shape368-140" transform="translate(75.2712,-94.7289)">
			<title>Dynamic connector.368</title>
			<path d="M7.09 653.1 L7.09 660.98" class="st2"/>
		</g>
		<g id="shape369-145" transform="translate(77.6265,-349.637)">
			<title>Sheet.369</title>
			<path d="M0 648.36 A4.73572 4.73572 0 0 1 9.47 648.36 A4.73572 4.73572 0 1 1 0 648.36 Z" class="st1"/>
		</g>
		<g id="shape370-147" transform="translate(75.2737,-373.098)">
			<title>Dynamic connector.370</title>
			<path d="M7.08 653.28 L7.09 660.05" class="st2"/>
		</g>
		<g id="shape371-152" transform="translate(75.2756,-349.637)">
			<title>Dynamic connector.371</title>
			<path d="M7.09 653.1 L7.09 662.02" class="st2"/>
		</g>
		<g id="shape372-157" transform="translate(89.4463,-299.116)">
			<title>Dynamic connector.372</title>
			<path d="M-7.08 653.1 L-7.09 663.08" class="st2"/>
		</g>
		<g id="shape373-162" transform="translate(75.2731,-239.57)">
			<title>Dynamic connector.373</title>
			<path d="M7.08 653.1 L7.09 664.93" class="st2"/>
		</g>
		<g id="shape374-167" transform="translate(89.4463,-211.223)">
			<title>Dynamic connector.374</title>
			<path d="M-7.08 653.1 L-7.09 663.48" class="st2"/>
		</g>
	</g>
</svg>
