<?xml version="1.0" encoding="UTF-8" standalone="no"?>
<!DOCTYPE svg PUBLIC "-//W3C//DTD SVG 1.1//EN" "http://www.w3.org/Graphics/SVG/1.1/DTD/svg11.dtd">
<!-- Generated by Microsoft Visio, SVG Export audio_module_functions.svg Page-1 -->
<svg xmlns="http://www.w3.org/2000/svg" xmlns:xlink="http://www.w3.org/1999/xlink" xmlns:ev="http://www.w3.org/2001/xml-events"
		width="3.41245in" height="9.29821in" viewBox="0 0 245.697 669.471" xml:space="preserve" color-interpolation-filters="sRGB"
		class="st15">
	<style type="text/css">
	<![CDATA[
		.st1 {fill:#6ad1e3;stroke:none;stroke-width:0.25}
		.st2 {fill:#ffffff;font-family:Calibri;font-size:2.50001em}
		.st3 {fill:#0033a0;stroke:none;stroke-width:0.25}
		.st4 {fill:#ffffff;font-family:Calibri;font-size:0.833336em}
		.st5 {fill:#00a9ce;stroke:none;stroke-width:0.25}
		.st6 {fill:#feffff;font-family:Calibri;font-size:0.833336em}
		.st7 {baseline-shift:32.4947%;font-size:0.649894em}
		.st8 {fill:#00a9ce;stroke:#000000;stroke-width:0.25}
		.st9 {fill:#0033a0;stroke:#000000;stroke-width:0.25}
		.st10 {fill:none;stroke:none;stroke-width:0.25}
		.st11 {fill:#000000;font-family:Calibri;font-size:1.00001em}
		.st12 {fill:#000000;font-family:Calibri;font-size:0.974172em}
		.st13 {baseline-shift:33.35%;font-size:0.667em}
		.st14 {font-size:1.02652em}
		.st15 {fill:none;fill-rule:evenodd;font-size:12px;overflow:visible;stroke-linecap:square;stroke-miterlimit:3}
	]]>
	</style>

	<g>
		<title>Page-1</title>
		<g id="group230-1" transform="translate(0.25,-0.25)">
			<title>Page-22</title>
			<g id="shape232-2" transform="translate(-7.99361E-13,-76.5318)">
				<title>Round Corner Rectangle.210</title>
				<desc>Module</desc>
				<path d="M24.09 669.47 L216.85 669.47 A24.0941 24.0941 -180 0 0 240.94 645.38 L240.94 101.12 A24.0941 24.0941 -180
							 0 0 216.85 77.03 L24.09 77.03 A24.0941 24.0941 -180 0 0 -0 101.12 L0 645.38 A24.0941 24.0941 -180 0
							 0 24.09 669.47 Z" class="st1"/>
				<text x="18.17" y="108.03" class="st2">Audio module</text>			</g>
			<g id="shape233-5" transform="translate(14.1732,-493.06)">
				<title>Rectangle.213</title>
				<desc>Regonfigure</desc>
				<rect x="0" y="626.951" width="202.677" height="42.5196" class="st3"/>
				<text x="4" y="639.95" class="st4">Reconfigure</text>			</g>
			<g id="shape234-8" transform="translate(14.1732,-443.618)">
				<title>Sheet.234</title>
				<desc>Configuration get</desc>
				<rect x="0" y="626.951" width="202.677" height="42.5196" class="st3"/>
				<text x="4" y="639.95" class="st4">Configuration get</text>			</g>
			<g id="shape235-11" transform="translate(71.1595,-447.161)">
				<title>Sheet.235</title>
				<desc>configure_get2</desc>
				<rect x="0" y="648.211" width="88.7044" height="21.2598" class="st5"/>
				<text x="14.44" y="661.84" class="st6">configure_get<tspan dy="-0.234em" class="st7">2</tspan></text>			</g>
			<g id="shape236-15" transform="translate(14.1732,-293.382)">
				<title>Rectangle.218</title>
				<desc>Start</desc>
				<rect x="0" y="626.951" width="202.677" height="42.5196" class="st3"/>
				<text x="4" y="639.95" class="st4">Start</text>			</g>
			<g id="shape237-18" transform="translate(71.1594,-297.634)">
				<title>Sheet.237</title>
				<desc>start1</desc>
				<rect x="0" y="648.211" width="88.7044" height="21.2598" class="st5"/>
				<text x="33.26" y="661.84" class="st6">start<tspan dy="-0.234em" class="st7">1</tspan></text>			</g>
			<g id="shape238-22" transform="translate(14.1732,-591.02)">
				<title>Sheet.238</title>
				<desc>Open</desc>
				<rect x="0" y="626.951" width="202.677" height="42.5196" class="st3"/>
				<text x="4" y="639.95" class="st4">Open</text>			</g>
			<g id="shape239-25" transform="translate(21.2598,-595.272)">
				<title>Sheet.239</title>
				<desc>open1</desc>
				<rect x="0" y="648.211" width="88.7044" height="21.2598" class="st5"/>
				<text x="32.33" y="661.84" class="st6">open<tspan dy="-0.234em" class="st7">1</tspan></text>			</g>
			<g id="shape240-29" transform="translate(69.3269,-496.768)">
				<title>Sheet.240</title>
				<desc>configure_set2</desc>
				<rect x="0" y="648.211" width="88.7044" height="21.2598" class="st5"/>
				<text x="14.83" y="661.84" class="st6">configure_set<tspan dy="-0.234em" class="st7">2</tspan></text>			</g>
			<g id="shape241-33" transform="translate(118.64,-595.272)">
				<title>Sheet.241</title>
				<desc>configure_set2</desc>
				<rect x="0" y="648.211" width="88.7044" height="21.2598" class="st8"/>
				<text x="14.83" y="661.84" class="st6">configure_set<tspan dy="-0.234em" class="st7">2</tspan></text>			</g>
			<g id="shape242-37" transform="translate(14.1732,-243.776)">
				<title>Rectangle.288</title>
				<desc>Stop</desc>
				<rect x="0" y="626.951" width="202.677" height="42.5196" class="st3"/>
				<text x="4" y="639.95" class="st4">Stop</text>			</g>
			<g id="shape243-40" transform="translate(71.1594,-248.027)">
				<title>Sheet.243</title>
				<desc>stop1</desc>
				<rect x="0" y="648.211" width="88.7044" height="21.2598" class="st5"/>
				<text x="33.81" y="661.84" class="st6">stop<tspan dy="-0.234em" class="st7">1</tspan></text>			</g>
			<g id="shape244-44" transform="translate(14.1732,-394.012)">
				<title>Rectangle.293</title>
				<desc>Connect</desc>
				<rect x="0" y="626.951" width="202.677" height="42.5196" class="st3"/>
				<text x="4" y="639.95" class="st4">Connect</text>			</g>
			<g id="shape245-47" transform="translate(14.1732,-342.988)">
				<title>Rectangle.295</title>
				<desc>Disconnect</desc>
				<rect x="0" y="626.951" width="202.677" height="42.5196" class="st3"/>
				<text x="4" y="639.95" class="st4">Disconnect</text>			</g>
			<g id="shape246-50" transform="translate(14.1732,-194.17)">
				<title>Rectangle.296</title>
				<desc>Send Data</desc>
				<rect x="0" y="626.951" width="202.677" height="42.5196" class="st3"/>
				<text x="4" y="639.95" class="st4">Send Data</text>			</g>
			<g id="shape247-53" transform="translate(14.1732,-144.564)">
				<title>Rectangle.297</title>
				<desc>Retrieve Data</desc>
				<rect x="0" y="626.951" width="202.677" height="42.5196" class="st3"/>
				<text x="4" y="639.95" class="st4">Retrieve Data</text>			</g>
			<g id="shape248-56" transform="translate(14.1732,-94.9573)">
				<title>Rectangle.298</title>
				<desc>Send and Retrieve Data</desc>
				<rect x="0" y="626.951" width="202.677" height="42.5196" class="st3"/>
				<text x="4" y="639.95" class="st4">Send and Retrieve Data</text>			</g>
			<g id="shape249-59" transform="translate(51.7322,-198.421)">
				<title>Sheet.249</title>
				<desc>data_process2</desc>
				<rect x="0" y="648.211" width="124.724" height="21.2598" class="st5"/>
				<text x="33.61" y="661.84" class="st6">data_process<tspan dy="-0.234em" class="st7">2</tspan></text>			</g>
			<g id="shape250-63" transform="translate(53.1495,-148.106)">
				<title>Sheet.250</title>
				<desc>data_process2</desc>
				<rect x="0" y="648.211" width="124.724" height="21.2598" class="st5"/>
				<text x="33.61" y="661.84" class="st6">data_process<tspan dy="-0.234em" class="st7">2</tspan></text>			</g>
			<g id="shape251-67" transform="translate(51.7322,-99.2092)">
				<title>Sheet.251</title>
				<desc>data_process2</desc>
				<rect x="0" y="648.211" width="124.724" height="21.2598" class="st5"/>
				<text x="33.61" y="661.84" class="st6">data_process<tspan dy="-0.234em" class="st7">2</tspan></text>			</g>
			<g id="shape252-71" transform="translate(14.1732,-541.413)">
				<title>Sheet.252</title>
				<desc>Close</desc>
				<rect x="0" y="626.951" width="202.677" height="42.5196" class="st3"/>
				<text x="4" y="639.95" class="st4">Close</text>			</g>
			<g id="group253-74" transform="translate(4.25195,-42.5129)">
				<title>Sheet.253</title>
				<g id="shape254-75" transform="translate(1.43885E-13,-1.42046)">
					<title>Sheet.254</title>
					<rect x="0" y="659.941" width="17.3254" height="9.53007" class="st8"/>
				</g>
				<g id="shape255-77" transform="translate(1.43885E-13,-17.4022)">
					<title>Rectangle.309</title>
					<rect x="0" y="659.941" width="17.3254" height="9.53007" class="st9"/>
				</g>
				<g id="shape256-79" transform="translate(17.0079,-14.1732)">
					<title>Sheet.256</title>
					<desc>Audio module function</desc>
					<rect x="0" y="655.298" width="198.425" height="14.1732" class="st10"/>
					<text x="4" y="665.98" class="st11">Audio module function</text>				</g>
				<g id="shape257-82" transform="translate(17.0079,1.13687E-13)">
					<title>Sheet.257</title>
					<desc>User supplied function</desc>
					<rect x="0" y="655.298" width="198.425" height="14.1732" class="st10"/>
					<text x="4" y="665.98" class="st11">User supplied function</text>				</g>
			</g>
			<g id="shape258-85" transform="translate(4.25195,-14.1732)">
				<title>Sheet.258</title>
				<desc>1An optionally user supplied function</desc>
				<rect x="0" y="641.124" width="240.945" height="28.3465" class="st10"/>
				<text x="4" y="657.08" class="st12"><tspan class="st13">1</tspan><tspan dy="0.152em" class="st14">Optional usersupplied function</tspan></text>			</g>
			<g id="shape259-90" transform="translate(4.25195,2.27374E-13)">
				<title>Sheet.259</title>
				<desc>2A mandatory user supplied function</desc>
				<rect x="0" y="641.124" width="240.945" height="28.3465" class="st10"/>
				<text x="4" y="657.08" class="st12"><tspan class="st13">2</tspan><tspan dy="0.152em" class="st14">Mandatory user supplied function</tspan></text>			</g>
		</g>
	</g>
</svg>
